<?xml version="1.0" standalone="no"?>
<!DOCTYPE svg PUBLIC "-//W3C//DTD SVG 20010904//EN"
 "http://www.w3.org/TR/2001/REC-SVG-20010904/DTD/svg10.dtd">
<svg version="1.0" xmlns="http://www.w3.org/2000/svg"
 width="1080.000000pt" height="1080.000000pt" viewBox="0 0 1080.000000 1080.000000"
 preserveAspectRatio="xMidYMid meet">
<metadata>
Created by potrace 1.14, written by Peter Selinger 2001-2017
</metadata>
<g transform="translate(0.000000,1080.000000) scale(0.100000,-0.100000)"
fill="#000000" stroke="none">
<path d="M0 5400 l0 -5400 5400 0 5400 0 0 5400 0 5400 -5400 0 -5400 0 0
-5400z m4686 4560 c271 -365 431 -802 474 -1295 17 -202 11 -416 -20 -720 -44
-428 -193 -741 -453 -953 -168 -138 -388 -258 -717 -392 -236 -97 -322 -140
-405 -203 -348 -265 -339 -711 25 -1255 133 -198 275 -364 457 -533 119 -110
210 -177 353 -260 153 -88 214 -134 306 -231 110 -116 183 -233 247 -393 97
-245 137 -483 187 -1120 20 -247 47 -488 69 -602 69 -358 213 -624 425 -785
88 -66 233 -144 314 -169 75 -22 36 -21 -55 1 -92 23 -230 79 -305 123 -264
154 -444 425 -562 844 -46 163 -71 283 -136 639 -96 524 -160 778 -246 976
-75 171 -103 208 -364 478 -291 300 -366 382 -504 550 -427 522 -601 933 -545
1293 28 179 113 334 268 487 120 119 235 197 582 395 359 206 503 307 640 451
132 140 282 530 336 874 21 137 24 482 5 630 -51 398 -189 791 -390 1115 -65
105 -117 175 -220 300 l-74 90 119 -120 c65 -66 150 -163 189 -215z m2199
-2831 c-8 -134 -35 -656 -60 -1159 -47 -957 -62 -1212 -95 -1650 -50 -655
-138 -1387 -196 -1626 -165 -685 -112 -1040 199 -1330 128 -119 373 -273 595
-374 40 -18 70 -35 68 -37 -8 -8 -184 19 -273 42 -546 142 -792 595 -743 1370
6 99 15 209 21 245 5 36 18 243 29 460 84 1672 201 2811 412 4012 28 164 53
296 55 294 2 -1 -4 -113 -12 -247z m-37 -5605 c118 -83 204 -157 261 -225 115
-138 102 -140 -49 -9 -80 69 -209 181 -287 249 -79 68 -143 125 -143 127 0 5
130 -80 218 -142z m-712 -630 c164 -111 490 -245 704 -291 108 -23 379 -25
455 -4 79 22 163 69 218 119 l50 47 -23 -45 c-34 -68 -144 -170 -220 -207
-216 -103 -509 -84 -794 52 -129 61 -260 151 -348 238 -67 66 -126 137 -115
137 2 0 35 -21 73 -46z"/>
</g>
</svg>
