<svg xmlns="http://www.w3.org/2000/svg" viewBox="0 0 304.5 116.3">
    <title>Serenity Foot and Ankle Specialists</title>
    <desc>Serenity Foot and Andkle Specialists full color logo with foot icon</desc>
    <style>.cls-1{fill:#2d868a}.cls-2{fill:#5c5658}</style>
    <path d="M52.3 112.1c-3.4 5.4-14.3 1.3-18.4-1.8 3.7 5.5 15.1 9.3 18.4 1.8zM13 0c12.2 9.6 10.3 24.6 10.3 25.5C22.8 37.8 17.4 40.8 7 45c-14.8 5.9 2 23.5 7.3 25.6 15.7 8.2 1.2 34 19.5 39-16.6-2.4-11.1-23-18.2-33.4C8 68.7-8 54.3 4.7 44.7c4.5-3.3 10.3-5 14-9.3C26.6 21.8 20 6 13 0zM50.3 110.4c-12-5.4-13.5-9.6-10.1-22.3 2.7-17.7 2.8-35.8 4-53.7-3.6 18.3-5 36.5-5.9 55-1.4 10.4-.4 20.1 12 21z" class="cls-1"/>
    <path d="M40.6 101.7l7.3 6.2c-1.8-2.9-4.6-4.5-7.3-6.2z" class="cls-1"/>
    <path d="M67.3 54.8a6.4 6.4 0 01-2.5-1.5l.6-.9a6.3 6.3 0 002.2 1.5 8 8 0 003 .5 5.7 5.7 0 003.4-.8 2.7 2.7 0 001.1-2.3 2.4 2.4 0 00-.6-1.7 4 4 0 00-1.5-1 19.4 19.4 0 00-2.4-.7 24.6 24.6 0 01-2.8-.8 4.5 4.5 0 01-1.8-1.2 3.4 3.4 0 01-.7-2.3 3.9 3.9 0 01.6-2.1 4.2 4.2 0 011.8-1.6 7.8 7.8 0 013.2-.5 9 9 0 012.5.4 7.9 7.9 0 012.2 1l-.4.9a7.2 7.2 0 00-2-1 7.8 7.8 0 00-2.3-.4 5.3 5.3 0 00-3.4 1 2.8 2.8 0 00-1 2.2 2.4 2.4 0 00.5 1.7 4 4 0 001.5 1 20.7 20.7 0 002.5.8 23.8 23.8 0 012.8.8 4.5 4.5 0 011.8 1.2 3.2 3.2 0 01.7 2.2 3.7 3.7 0 01-.6 2.1 4.2 4.2 0 01-2 1.6 7.8 7.8 0 01-3 .5 9.2 9.2 0 01-3.4-.6zM91.2 54.3v1h-11V39.5h10.6v1h-9.4v6.2H90v1h-8.5v6.5zM106.4 55.3l-3.7-5.3a10.8 10.8 0 01-1.6.1h-4.5v5.2h-1.2V39.5h5.7a7 7 0 014.7 1.4 4.8 4.8 0 011.7 4 4.8 4.8 0 01-3.7 5l4 5.5zm-5.3-6.2A6 6 0 00105 48a4 4 0 001.3-3.2 4 4 0 00-1.3-3.1 6 6 0 00-3.9-1.2h-4.5v8.6zM122.7 54.3v1h-11V39.5h10.6v1H113v6.2h8.5v1h-8.5v6.5zM139.8 39.5v15.8h-1l-10.7-13.7v13.7h-1.2V39.5h1l10.8 13.7V39.5zM145.4 39.5h1.1v15.8h-1.1zM155.1 40.5h-5.7v-1H162v1h-5.7v14.8h-1.1zM169.7 49.9v5.4h-1.1V50l-6.4-10.4h1.2l5.8 9.3 5.7-9.3h1.2zM186 40.5v6.8h8.4v1H186v7h-1.2V39.5h10.6v1zM201.5 54.4a7.8 7.8 0 01-3-2.9 8.4 8.4 0 010-8.2 7.8 7.8 0 013-2.9 8.5 8.5 0 014.2-1 8.6 8.6 0 014.2 1 7.7 7.7 0 013 2.9 8.4 8.4 0 010 8.2 7.7 7.7 0 01-3 2.9 9 9 0 01-8.4 0zm7.8-1a6.8 6.8 0 002.5-2.4 7.3 7.3 0 000-7.1 6.6 6.6 0 00-2.5-2.5 7.6 7.6 0 00-7.2 0 6.6 6.6 0 00-2.6 2.5 7.3 7.3 0 000 7 6.8 6.8 0 002.6 2.6 7.7 7.7 0 007.2 0zM220.5 54.4a7.7 7.7 0 01-3-2.9 8.3 8.3 0 010-8.2 7.7 7.7 0 013-2.9 8.5 8.5 0 014.2-1 8.6 8.6 0 014.2 1 7.6 7.6 0 013 2.9 8.4 8.4 0 010 8.2 7.6 7.6 0 01-3 2.9 9 9 0 01-8.4 0zm7.8-1a6.8 6.8 0 002.5-2.4 7.3 7.3 0 000-7.1 6.6 6.6 0 00-2.5-2.5 7.1 7.1 0 00-3.6-1 7.2 7.2 0 00-3.6 1 6.6 6.6 0 00-2.6 2.5 7.3 7.3 0 000 7.1 6.7 6.7 0 002.6 2.5 7.3 7.3 0 003.6.9 7.2 7.2 0 003.6-1zM239.8 40.5H234v-1h12.5v1H241v14.8h-1.1zM265.1 50.9H256l-2 4.4h-1.2l7.2-15.8h1.1l7.3 15.8h-1.2zm-.4-1l-4.1-9.2-4.2 9.2zM284.2 39.5v15.8h-1l-10.7-13.7v13.7h-1.1V39.5h1L283 53.2V39.5zM289.8 39.5h6.3a9.1 9.1 0 014.3 1 7.5 7.5 0 013 2.8 8.3 8.3 0 010 8.2 7.4 7.4 0 01-3 2.8 9.1 9.1 0 01-4.3 1h-6.3zm6.2 14.8a8.3 8.3 0 003.9-.9 6.2 6.2 0 002.5-2.4 7.5 7.5 0 000-7.2 6.2 6.2 0 00-2.6-2.4 8.3 8.3 0 00-3.8-.8h-5v13.7z" class="cls-2"/>
    <path d="M77.1 73.2h-9.7L65.2 78H64l7.8-16.8h1.2L80.6 78h-1.3zm-.4-1l-4.4-9.7-4.4 9.7zM97.3 61.1V78h-1L85 63.3V78h-1.2V61.1h1L96 75.8V61.1zM108.2 69.7l-3.8 3.8V78h-1.2V61.1h1.2V72L115 61.1h1.5l-7.4 7.7 7.9 9.1h-1.5zM120.1 61.1h1.2v15.7h9.7V78h-10.9zM145.7 76.8V78h-11.5V61.1h11.2v1.1h-10V69h9V70h-9v6.9zM157.3 77.4a6.9 6.9 0 01-2.6-1.6l.6-1a6.4 6.4 0 002.3 1.6 8.6 8.6 0 003.2.6 6 6 0 003.6-1 2.8 2.8 0 001.2-2.3 2.5 2.5 0 00-.6-1.8 4.2 4.2 0 00-1.6-1 21.4 21.4 0 00-2.6-.8 26 26 0 01-3-.8 4.8 4.8 0 01-1.9-1.4 3.6 3.6 0 01-.8-2.4 4.1 4.1 0 01.7-2.2 4.4 4.4 0 012-1.6 8 8 0 013.3-.6 9.4 9.4 0 012.7.4 8.1 8.1 0 012.4 1l-.5 1a7.8 7.8 0 00-2.2-1 8.3 8.3 0 00-2.4-.3 5.7 5.7 0 00-3.5.9 3 3 0 00-1.2 2.4 2.5 2.5 0 00.6 1.8 4.3 4.3 0 001.6 1 24 24 0 002.6.8 23.2 23.2 0 013 .9 4.9 4.9 0 011.9 1.3 3.5 3.5 0 01.8 2.3 4 4 0 01-.7 2.3 4.4 4.4 0 01-2 1.6 8.3 8.3 0 01-3.4.6 9.8 9.8 0 01-3.5-.7zM182 62.6a5.7 5.7 0 010 8.3 7.5 7.5 0 01-5 1.5h-4.8V78H171V61.1h6a7.6 7.6 0 015 1.5zm-.9 7.6a4.1 4.1 0 001.4-3.4 4.2 4.2 0 00-1.4-3.4 6.2 6.2 0 00-4-1.1h-4.9v9h4.8a6.2 6.2 0 004.2-1.1zM199.6 76.8V78H188V61.1h11.2v1.1h-10V69h9V70h-9v6.9zM206.6 77a8.1 8.1 0 01-3.1-3 9 9 0 010-8.7 8.1 8.1 0 013-3A9 9 0 01211 61a9.3 9.3 0 013.4.6 7.1 7.1 0 012.6 1.8l-.8.7a7 7 0 00-5.1-2 7.8 7.8 0 00-3.9 1 7.1 7.1 0 00-2.7 2.7 7.8 7.8 0 000 7.6 7 7 0 002.8 2.6 7.8 7.8 0 003.8 1 7 7 0 005.1-2l.8.8a6.9 6.9 0 01-2.6 1.7 9.2 9.2 0 01-3.4.6 9 9 0 01-4.4-1.1zM221.1 61.1h1.3V78H221zM238.6 73.2H229l-2.2 4.7h-1.3l7.8-16.8h1.2L242 78h-1.3zm-.4-1l-4.4-9.7-4.4 9.7zM245.2 61.1h1.2v15.7h9.7V78h-11zM259.2 61.1h1.3V78h-1.3zM267.2 77.4a6.8 6.8 0 01-2.6-1.6l.6-1a6.4 6.4 0 002.4 1.6 8.6 8.6 0 003.1.6 6 6 0 003.6-1 2.8 2.8 0 001.2-2.3 2.5 2.5 0 00-.6-1.8 4.3 4.3 0 00-1.6-1 21 21 0 00-2.6-.8 25.8 25.8 0 01-3-.8 4.7 4.7 0 01-1.9-1.4 3.6 3.6 0 01-.8-2.4 4.1 4.1 0 01.7-2.2 4.4 4.4 0 012-1.6 8 8 0 013.3-.7 9.5 9.5 0 012.7.4 8 8 0 012.4 1.1l-.5 1a7.8 7.8 0 00-2.2-1 8.3 8.3 0 00-2.4-.4 5.7 5.7 0 00-3.5 1 3 3 0 00-1.2 2.3 2.5 2.5 0 00.6 1.8 4.2 4.2 0 001.6 1 23.6 23.6 0 002.7.8 23.7 23.7 0 012.9 1 5 5 0 011.9 1.2 3.5 3.5 0 01.8 2.4 4 4 0 01-.7 2.2 4.4 4.4 0 01-2 1.6 8.3 8.3 0 01-3.4.6 9.8 9.8 0 01-3.5-.6zM284 62.3h-6.1v-1.1h13.3v1h-6V78H284zM294.8 77.4a6.9 6.9 0 01-2.6-1.6l.6-1a6.4 6.4 0 002.4 1.6 8.6 8.6 0 003.1.6 6 6 0 003.6-1 2.8 2.8 0 001.3-2.3 2.5 2.5 0 00-.7-1.8 4.3 4.3 0 00-1.6-1 21.4 21.4 0 00-2.6-.8 26 26 0 01-3-.8 4.8 4.8 0 01-1.9-1.4 3.6 3.6 0 01-.7-2.4 4.1 4.1 0 01.6-2.2 4.4 4.4 0 012-1.6 8 8 0 013.3-.6 9.4 9.4 0 012.8.4 8.1 8.1 0 012.3 1l-.5 1a7.8 7.8 0 00-2.2-1 8.3 8.3 0 00-2.4-.4 5.7 5.7 0 00-3.5 1 3 3 0 00-1.2 2.4 2.5 2.5 0 00.6 1.8 4.3 4.3 0 001.7 1 24 24 0 002.6.7 23.2 23.2 0 013 1 4.9 4.9 0 011.8 1.2 3.5 3.5 0 01.8 2.4 4 4 0 01-.6 2.2 4.4 4.4 0 01-2 1.6 8.3 8.3 0 01-3.4.6 9.8 9.8 0 01-3.6-.6z" class="cls-1"/>
</svg>
